<?xml version="1.0" encoding="UTF-8"?>
<svg id="Layer_2" data-name="Layer 2" xmlns="http://www.w3.org/2000/svg" viewBox="0 0 1580.1 404.66">
  <defs>
    <style>
      .cls-1 {
        stroke: #0c0c0c;
        stroke-miterlimit: 10;
      }
    </style>
  </defs>
  <g id="Layer_1-2" data-name="Layer 1">
    <g>
      <path class="cls-1" d="M1559.67,54.47c-24.33-33.4-69.27-42.77-108.08-44.44h-.17c-45.89-1.12-99.06-.51-143.18-.39-21.88.29-19.57,5.16-24.01,24.63-2.89,14.99-7.12,35.42-12.12,59.04-.47-1.46-.97-2.91-1.49-4.34-8.37-23.01-23.8-42.85-43.97-57.28-42.38-29.78-98.87-35.92-149.38-28.08-30.2,4.96-58.51,16.76-83.3,34.47-24.99,17.69-45.2,40.95-60.35,67.38-1.13-3.7-2.39-7.35-3.8-10.94-24.26-61.7-82.36-81.7-145.41-84.45h-.18c-16.01-.77-32.26-.63-48.46-.66-28.15.25-57.45-.54-83.66.4-5.65.49-11.71.64-14.99,5.31-1.25,1.86-2.03,4.34-2.81,7.56-1.01,4.25-2.13,9.81-3.57,16.56-3.09,14.62-7.09,33.47-11.61,54.83-.73-20.36-7.69-40.24-21.8-54.45-24.65-24.69-63.62-28.38-96.32-29.75h-.17c-42.88-.97-95.73-.17-136.81-.42-6.71,0-13.76.06-20.08.51-4.57.38-8.62.98-11.73,3.52-1.63,1.46-2.66,3.48-3.52,6.21-1.13,3.59-2.07,8.43-3.39,14.57-4.35,21.79-10.35,50.19-17.08,81.58C285.88,55.2,227.6,11.96,159.22,11.96,71.56,11.96.5,83.02.5,170.67s71.06,158.72,158.72,158.72c44.41,0,84.55-18.25,113.36-47.64-9.84,46.58-17.93,86.49-21.28,107.94,1.2,6.15,11.46,5.13,20.75,5.52,2.1.02,4.37.03,6.8.04,41.61-.06,114.59.14,161.45-.04,15.69-.14,28.26-.56,44.47-3.22,28.38-4.29,56.5-15.28,78.26-33.4-1.59,7.49-2.94,13.87-4,18.89-2.05,10.87-4.71,16.68,9.82,17.35,33.2,1.04,75.34.06,110.48.41,28.55-.06,45.5.23,69.51-2.46,55.56-5.33,110-30.73,144.5-75.38,5.67-7.23,10.8-14.87,15.42-22.83.99,3.7,2.06,7.37,3.24,11.01,17.68,54.05,66.09,88.07,121.62,95.91,27.54,4.24,55.89,3.99,82.12-4.89,12.93-4.07,27.81-14.02,37.35-17.89,3.99-1.56,8.31-2.76,12.5-2.04h.09c4.65.74,10.13,4.56,15.33,7.99,11.3,7.77,23.33,14.41,36.37,8.88,3.9,1.09,8.77,1.19,12.01,1.41,9.3.4,22.35.47,33.3.16,12.5-.44,26.41-1.55,31.77-12.62,2.02-3.71,3.3-7.93,4.48-12.32,5.28-22.09,10.39-48.14,15.5-71.41,3.17-12.28,4.65-31.99,16.18-37.78,4.81-2.53,11.64-3.41,20.49-3.76,65.42-1.57,127.95,7.56,182.47-36.79,14.71-12.14,26.73-27.43,34.61-44.79,16.83-37.9,15.97-88.14-8.5-121.16ZM297.59,158.41c-1,5.7-5.85,13.47-17.61,13.17,5.6-10.37,9.78-17.93,9.75-31.75,10.04,2.19,10.69,9.93,7.86,18.58ZM84.38,291.59c-7.18-3.15-10.91-5.98-14.48-9.31-4.95-3.03-3.25-9.37,2.68-10.56,4.08-.79,12.18.39,16.75-5.71-13.41-16.05-32.56,7.63-43.81-8.96,6.37-8.36,12.73-6.88,19.28-8.56.39-5.93-5.85-6.49-4.93-6.34-7.65-1.05-10.64-2.89-21.15,3.78C-1.39,192.75,5.38,114.54,51.31,66.2c44.88-46.79,126.4-54.36,179.28-17.77-5.6,14.75-2.92,15.4,3.21,26.32-.58.53,15.66,6.2,6.9-12.85-2.3-1.88,3.36-10.86,12.84,2.49-2.06,14.35-10.45,32.89,6.84,37.97l1.72,3.09c-1.88,6.82-.91,14.37-6.29,21.56-11.02-1.46-18.84,4.19-18.98,13.14-1.71,6.76.25,14.49,7.96,16.22l2.24,2.75c-6.85,6.6-9.46,16.97-13.35,19.4-12.16.81-19.48-2.63-17.16-11.72,1.34-7.79,5.29-13.96,12.11-20.48-11.17-4.63-19.34.77-21.72,12.98-2.42,4.8,6.43,12.55,6.65,19.58-6.03,20.34,1.09,36.43-17.54,46.66,5.13,8.71,3.48,20.01-4.89,23.65-7.11,1.85-16.84,2.19-21.18-3.74-9.05,2.18-17.64,6.61-20.5,15.89l-2.69-2.83c-1.82-10.05-11.98-13.85-20.49-9.36-9.17,3.43-14.39,11.47-9.58,23.66-9.76-3.69-16.23-2.57-22.62,1.86-4.8,4.21-6.19,10.72-9.7,16.92ZM97.06,296.89c8.01-1.85,14.41-5.38,26.13-10.07-2.51,10.9-14.59,19.37-26.13,10.07ZM121.7,276.63c-5.24-6.09,2.44-12.46,7.2-13.35,5.68-2.76,9.9-3.25,15.73-3.83l4.61,4.25c-1.62,7.29-5.15,11.8-10.34,14.22-4.27,1.67-10.4,1.72-17.2-1.28ZM150.42,308.12c-4.87,2.69-11.92,3.14-15.92-4.87,10.22-3.57,16.4-5.96,23.85-12.17,3.62,8.96-.97,14.19-7.93,17.04ZM158.77,276.11c-2.3-8.39,5.21-9.23,9.17-7.81,6.07-1.73,8.92-4.54,12.39-7.92,5.39,8.06-1.76,12.01-.75,12.01-6.57,4.15-9.53,6.03-20.81,3.72ZM172.99,305.44c10.49-3.79,19.27-6.75,27.93-14.3-.54,12.77-16.34,22.92-27.93,14.3ZM215.43,273.12c-5.09,3.99-12.54,5.67-18.9.36,9.29-6.18,13.22-8.62,23.28-18.19,3.85,9.09-.21,14.26-4.39,17.83ZM227.81,235.57c-3.58,3.7-12.25,9-20.08.12,8.14-3.69,14.2-5.27,21.56-17.79,5.56,4.79,4.54,11.62-1.48,17.68ZM237.36,199.71c-2.81,5.54-5.21,10.72-16.87,9.33-3.14-9.13-.75-14.21,3.61-19.34,1.51-1.44,7.52-8.69,12.93-4.56,1.17,6.48,1.25,11.68.33,14.57ZM239.16,268.32c6.37-7.97,9.73-14.99,18.77-23.01,2.61,11.8-6.87,21.55-18.77,23.01ZM265.52,215.97c-1.95,6.05-1.13,12.8-15.6,11.92,1.36-8.86,5.69-10.23,7.26-13.33-.99-7.04,3.19-12.25,5.55-10.11,6.17,6.09,2.69,10.66,2.8,11.52ZM265.63,181.05c-2.74,6.08-8.76,13.44-19.48,10.04,6.36-7.84,9.68-12.83,13.08-26.69,8.64,2.21,9.73,9.53,6.4,16.65ZM266.06,150.84c-3.9,4.4-9.06,6.52-16.49,6.81l-1.47-2.32c.69-7.3,2.35-14.32,5.56-20.46,2.88-8.37,10.77-6.17,12.18,1.65,4.7,5.33,3.1,11.11.23,14.32ZM270.75,97.97c-.89.82-2.48,2.44-6.25,5.21l-1.73-1.85c.93-4.69,1.5-8.37,1.67-12.59-1.01-6.52,7.35-7.96,9.52-2.61,1.56,5.72.21,8.79-3.21,11.84ZM277.38,101.78c9.04,3.67,11.64,10.77,10.97,17.75-1.65,6.51-4.15,14.87-16.3,14.14,4.8-10.89,6.68-18.36,5.34-31.89ZM281.21,210.44l11.24-21.45c-1.23,5.69-2.46,11.39-3.69,17.09-2.17,1.65-4.71,3.11-7.55,4.36ZM507.09,305.3c-12.33,13.9-30.28,20.27-48.52,22.47l-.19.02c-16.45,1.86-33.66,1.44-50.39,1.54-12.53-.04-26.02.12-36.42-.19-6.49-.33-13.73-.39-19.35-3.43-8.67-5.18-4.68-18.15-3.1-27.59,1.37-6.59,3.12-14.14,4.83-21.75,4.01-14.86,6.21-39.22,18.05-47.11,11.49-7.66,34.82-5.4,49.14-5.84,25.91.48,53.61-1.54,75.72,10.11,27.48,14.03,29.37,49.86,10.23,71.76ZM523.96,144.57c-10.65,11.9-26.05,17.54-41.71,19.53l-.19.02c-11.87,1.47-24.33,1.4-36.5,1.47-14.97-.09-31.37.29-45.04-.33-20.23-.77-21.08-8.43-17.51-26.75,2.53-12.13,6-28.58,9.11-40.19,5.82-23.13,18.4-22.38,39.21-22.92,12.8-.06,26.14-.09,38.97.06,23.57.55,46.01.98,58.63,19.49,9.98,15.03,6.74,36.4-4.97,49.62ZM591.15,225.92c-1.19-1.9-2.46-3.75-3.82-5.54-2.82-3.76-6.04-7.45-9.06-10.94-6.64-8.13-11.59-12.67-9.95-20.22,2.26-6.32,7.23-9.77,14.49-16.14,8.21-6.79,16.45-14.66,22.1-23.91,1.47-2.34,2.82-4.79,4.07-7.29-5.76,27.16-11.87,56-17.82,84.05ZM855.78,195.4c-7.95,72.79-57.11,125.84-131.96,127.99h-.2c-10.02.49-20.31.49-30.41.51-10.92-.02-21.77.11-28.11-.69-6.23-.68-9.26-2.64-7.89-9.31,11.67-55.11,38.57-178.63,47.81-221.28,1.48-7.55,4.51-10.4,12.53-11.18,8.67-.98,25.2-.66,36.49-.65,16.95.16,33.66.54,48.8,5.55,47.94,14.85,57.92,64.68,52.93,109.07ZM1251.95,187.44c-7.71-.55-16.24-.14-21.55-.37-26.22.06-60.3-.14-86.48.09-6.36.14-13.19.47-18.89,1.89-10.25,2.36-16.6,9.15-20.64,18.7-4.91,11.74-7,28.47,4.32,36.68,9.87,6.54,21.51,5.64,33.93,6.97,29.89,2.21,38.66,13.91,19.68,39.52-27.1,38.35-83.48,51.64-125.7,31.65-45.61-21.94-54.37-79.37-45.9-124.67,9.81-59.9,49.2-118.2,113.72-123.31,23.49-1.93,49.53,1.94,66.87,18.07,14.94,14.44,22.55,32.45,43.47,39.19,13.32,5.12,36.08,6.18,49.54-2.06-3.95,18.44-8.14,37.91-12.38,57.65ZM1480.13,167.69c-13.4,14.39-31.84,19.91-51.51,22l-.2.02c-16.83,1.65-38.06,1.32-55.75,1.32-7.07-.06-13.66-.22-18.91-.9-7.33-1.13-12.59-2.45-14.64-9.06-1.7-7.5.7-15.99,2.12-23.71,3.62-16.61,7.76-36.67,11.74-53.73,3.36-14.08,7.55-24.42,23.36-26.78,13.13-2.07,27.88-1.36,41.44-1.25,30.67.03,66.67,5.62,75.17,38.8,4.69,18.2-.35,39.44-12.83,53.3Z"/>
      <path class="cls-1" d="M175.58,221.86c-7.7,4.42-9.56,14.91-5.63,23.58,9.38-6.43,14.97-17.4,26.06-19.91-3.18-7.46-12.54-7.77-20.43-3.68Z"/>
      <path class="cls-1" d="M238.05,129.31c-3.28-13.25-1.75-23.45,4.3-35.3-11.39-3.32-16.88,6.36-16.78,15.62-1.18,8.38.07,18.3,12.49,19.68Z"/>
      <path class="cls-1" d="M137.82,241.76c5.16-11.75,12.95-14.22,26.59-15.5-7.8-13.18-18.15-8.67-25.9-3.71-4.12,4.14-8.54,13.1-.69,19.2Z"/>
      <path class="cls-1" d="M182.14,212.5c4.72-9.8,9.65-16.15,19.67-23.46-8.93-7.5-16.27-2.47-21.34,3.06-4.34,5.53-8.88,14.03,1.67,20.39Z"/>
      <path class="cls-1" d="M116.11,244.65c-4.22-9.27-14.26-10.64-21.51-7.48-7.6,3.04-12.51,11.08-5.4,20.23,7.94-9.81,15.33-13.64,26.91-12.76Z"/>
    </g>
  </g>
</svg>