<?xml version="1.0" encoding="UTF-8"?>
<svg id="Layer_2" data-name="Layer 2" xmlns="http://www.w3.org/2000/svg" viewBox="0 0 1327.77 861.66">
  <defs>
    <style>
      .cls-1 {
        fill: #f4f4f4;
      }
    </style>
  </defs>
  <g id="Layer_1-2" data-name="Layer 1">
    <g>
      <g>
        <path class="cls-1" d="M35.21,754.72l-4.61,4.68,4.97,4.9v14.33l-7.56,7.49H0v-6.19h5.26v-38.02H0v-6.19h28.08l7.13,7.13v11.88ZM11.52,741.9v14.98h13.97l3.6-3.6v-7.7l-3.6-3.67h-13.97ZM11.52,762.35v17.57h13.97l3.82-3.89v-10.08l-3.6-3.6h-14.18Z"/>
        <path class="cls-1" d="M74.16,779.92h5.69v6.19h-16.71v-6.19h4.46l-2.52-9.14h-15.19l-2.52,9.14h4.32v6.19h-15.41v-6.19h5.54l10.37-38.02h-5.69v-6.19h16.13l11.52,44.21ZM50.76,766.89h13.25l-6.62-24.48-6.62,24.48Z"/>
        <path class="cls-1" d="M127.44,741.97h-5.33v44.14h-6.12l-21.1-41.69v35.5h4.54v6.19h-15.26v-6.19h5.26v-37.95h-5.26v-6.26h13.46l19.01,38.45v-32.19h-4.54v-6.26h15.34v6.26Z"/>
        <path class="cls-1" d="M169.35,775.96l-10.08,10.15h-27.07v-6.19h5.26v-38.02h-5.26v-6.19h27.43l9.72,9.72v30.53ZM143.71,741.9v38.02h13.39l6.05-6.05v-26.14l-5.76-5.83h-13.68Z"/>
        <path class="cls-1" d="M208.8,777.98l-8.14,8.14h-16.63l-8.14-8.14v-34.49l7.78-7.78h17.35l7.78,7.78v34.49ZM186.19,741.9l-4.1,4.1v29.52l4.39,4.39h11.74l4.39-4.39v-29.52l-4.1-4.1h-12.31Z"/>
        <path class="cls-1" d="M258.56,741.97h-5.33v44.14h-6.12l-21.1-41.69v35.5h4.54v6.19h-15.27v-6.19h5.26v-37.95h-5.26v-6.26h13.47l19.01,38.45v-32.19h-4.54v-6.26h15.34v6.26Z"/>
        <path class="cls-1" d="M323.5,775.96l-10.08,10.15h-27.07v-6.19h5.26v-38.02h-5.26v-6.19h27.43l9.72,9.72v30.53ZM297.86,741.9v38.02h13.39l6.05-6.05v-26.14l-5.76-5.83h-13.68Z"/>
        <path class="cls-1" d="M370.08,741.9h-5.33v36.51l-7.63,7.71h-16.13l-7.71-7.71v-36.51h-5.26v-6.19h16.06v6.19h-4.54v33.63l4.32,4.39h10.51l4.32-4.39v-33.63h-4.61v-6.19h15.99v6.19Z"/>
        <path class="cls-1" d="M418.03,741.97h-5.33v44.14h-6.12l-21.1-41.69v35.5h4.54v6.19h-15.27v-6.19h5.26v-37.95h-5.26v-6.26h13.47l19.01,38.45v-32.19h-4.54v-6.26h15.34v6.26Z"/>
        <path class="cls-1" d="M458.21,748.74h-5.26v-6.77h-18.72v15.34h12.75v-3.38h4.46v11.45h-4.46v-3.38h-12.75v17.93h18.79v-6.77h5.26v12.96h-35.5v-6.19h5.26v-37.95h-5.26v-6.26h35.43v13.03Z"/>
        <path class="cls-1" d="M495.86,742.84v7.13h-6.19v-4.39l-3.67-3.67h-11.74l-3.67,3.67v8.93l2.74,2.59h17.28l5.76,5.62v15.91l-7.49,7.49h-16.99l-7.49-7.49v-9.22h6.19v6.62l3.89,3.89h11.81l3.82-3.89v-10.44l-2.59-2.66h-17.28l-5.83-5.76v-14.33l7.13-7.13h17.28l7.06,7.13Z"/>
        <path class="cls-1" d="M32.91,817.77h-6.19v-6.19l-3.6-3.67h-12.31l-4.61,4.61v28.59l4.83,4.82h10.37l5.33-5.33v-10.8h-9.36v-4.39h15.55v26.71h-5.98v-5.69l-5.69,5.69h-12.38l-8.86-8.86v-33.12l8.42-8.42h17.35l7.13,7.13v8.93Z"/>
        <path class="cls-1" d="M72.07,843.98l-8.14,8.14h-16.63l-8.14-8.14v-34.49l7.78-7.78h17.35l7.78,7.78v34.49ZM49.46,807.9l-4.1,4.1v29.52l4.39,4.39h11.74l4.39-4.39v-29.52l-4.1-4.1h-12.31Z"/>
        <path class="cls-1" d="M95.54,807.9h-5.47v38.02h18.29v-7.99h5.33v14.19h-35.14v-6.19h5.26v-38.02h-5.26v-6.19h16.99v6.19Z"/>
        <path class="cls-1" d="M153.87,814.82h-5.26v-6.84h-18.72v16.42h14.69v-3.38h4.46v11.45h-4.46v-3.38h-14.69v16.85h5.76v6.19h-17.21v-6.19h5.26v-37.95h-5.26v-6.26h35.43v13.11Z"/>
        <path class="cls-1" d="M217.15,816.47h-5.33v-8.86h-9.86v38.31h5.98v6.19h-18.15v-6.19h5.98v-38.31h-9.86v8.86h-5.33v-14.76h36.58v14.76Z"/>
        <path class="cls-1" d="M257.76,808.84v14.26l-6.84,6.84h-3.74l8.07,15.99h4.61v6.19h-15.48v-6.19h4.32l-8.07-15.99h-7.34v15.99h4.39v6.19h-15.84v-6.19h5.26v-37.95h-5.26v-6.26h28.87l7.06,7.13ZM233.28,807.97v17.21h14.69l3.6-3.6v-10.01l-3.6-3.6h-14.69Z"/>
        <path class="cls-1" d="M282.74,807.9h-5.26v38.02h5.26v6.19h-16.78v-6.19h5.26v-38.02h-5.26v-6.19h16.78v6.19Z"/>
        <path class="cls-1" d="M327.38,809.49v15.77l-7.7,7.78h-17.5v12.89h5.76v6.19h-17.28v-6.19h5.26v-38.02h-5.26v-6.19h29.02l7.7,7.78ZM302.18,807.9v19.44h14.91l4.1-4.1v-11.23l-4.1-4.1h-14.91Z"/>
        <path class="cls-1" d="M387.57,823.89l-5.83,5.83h-16.99l-2.66,2.66v13.54h19.51v-6.91h6.19v13.11h-31.9v-22.61l5.69-5.62h17.07l2.66-2.59v-9.72l-3.6-3.6h-11.52l-3.6,3.6v4.46h-6.26v-7.2l7.13-7.13h16.99l7.13,7.13v15.05Z"/>
        <path class="cls-1" d="M425.8,808.84v7.13h-6.19v-4.39l-3.67-3.67h-11.74l-3.67,3.67v10.08h20.02l5.76,5.62v17.35l-7.49,7.49h-16.99l-7.49-7.49v-35.79l7.13-7.13h17.28l7.06,7.13ZM400.53,827.49v14.54l3.89,3.89h11.81l3.82-3.89v-11.88l-2.59-2.66h-16.92Z"/>
        <path class="cls-1" d="M440.13,805.74l-5.18,10.22-2.16-1.08,2.3-10.44v-4.18h5.04v5.47Z"/>
        <path class="cls-1" d="M475.62,852.11h-5.98v-7.2h5.98v7.2Z"/>
      </g>
      <g>
        <path class="cls-1" d="M1307.84,520.83c-24.33-33.4-69.27-42.77-108.08-44.44h-.17c-45.89-1.12-99.07-.51-143.18-.39-21.88.29-19.57,5.16-24.01,24.63-3.25,16.84-8.18,40.54-14,67.92.69-5.3,1.06-10.59-2.43-14.12-6.58-5.91-26.96-4.17-36.63-4.6-26.22.06-60.3-.14-86.48.09-6.36.14-13.19.47-18.89,1.89-10.25,2.36-16.6,9.15-20.64,18.7-4.91,11.74-7,28.47,4.32,36.68,9.87,6.54,21.51,5.64,33.93,6.97,29.89,2.21,38.66,13.91,19.68,39.52-27.1,38.35-83.48,51.64-125.7,31.65-45.61-21.94-54.37-79.37-45.9-124.67,9.81-59.9,49.2-118.2,113.72-123.31,23.49-1.93,49.53,1.94,66.87,18.07,14.94,14.44,22.55,32.45,43.47,39.19,19.21,7.39,58.07,6.34,60.32-18.91.63-8-1.71-16.28-4.49-23.98-8.37-23.01-23.8-42.85-43.97-57.28-42.38-29.78-98.87-35.92-149.39-28.08-30.2,4.96-58.51,16.76-83.3,34.47-4.78,3.38-9.37,6.98-13.79,10.75,2.99-22.35,5.9-44.49,8.51-65.52,1.51-10.54,2.67-22.33,9.28-30.84,11.52-15.15,39.98-14.73,58.05-18.98,18.97-3.3,38.21-6.68,57.21-9.96,26.41-4.61,51.85-9.35,78.38-5.49,16.6,2.75,36.48,6.39,47.49,20.13,12.67,16.92-2.91,41.14,2.96,60.68,10.38,28.92,47.69,16.98,70.38,12.73,13.34-2.82,26.88-4.35,40.51-4.5,20.26.1,37.12-1.91,39.75-24.49l.03-.19c4.2-59.78-24.6-113.67-62.55-157.17-5.21-6.15-10.56-12.66-13.94-19.84-6.33-12.23-4.48-26.66-4.05-40,.92-19.55-6.71-37.32-18.66-52.6-53.22-69.11-134.16-52.49-210.56-53.51-14.14,0-28.56-1.68-41.31-8.17-9.44-4.5-17.66-10.82-27.41-12.99-22.48-5.06-29.48,12.64-31.65,32.96-24.18,180.81-37.96,233.01-52.36,320.19-.15-.38-.29-.76-.43-1.14-24.26-61.7-82.36-81.7-145.41-84.45h-.18c-16.01-.77-32.26-.63-48.46-.66-28.15.25-57.45-.54-83.66.4-5.65.49-11.71.64-14.99,5.31-1.25,1.86-2.03,4.34-2.81,7.56-1.01,4.25-2.13,9.81-3.57,16.56-6.37,30.11-16.56,78.17-27.37,129.17-1.36-15.76-6.44-31.02-16.02-43.56-2.82-3.76-6.04-7.45-9.06-10.94-6.64-8.13-11.59-12.67-9.95-20.22,2.26-6.32,7.23-9.77,14.49-16.14,8.21-6.79,16.45-14.66,22.1-23.91,20.31-32.37,19.98-81.78-7.6-109.54-24.65-24.69-63.62-28.38-96.32-29.75h-.17c-42.88-.97-95.73-.17-136.81-.42-6.71,0-13.76.06-20.08.51-4.57.38-8.62.98-11.73,3.52-1.63,1.46-2.66,3.48-3.52,6.21-1.13,3.59-2.07,8.43-3.39,14.57C56.12,287.71,9.64,492.48.24,552.53c1.2,6.15,11.46,5.13,20.75,5.52,2.1.02,4.37.03,6.8.04,41.61-.06,114.59.14,161.45-.04,15.69-.14,28.26-.56,44.47-3.22,42.64-6.45,84.67-28.02,105.45-66.21-13.45,63.45-25.9,122.17-31.19,147.23-2.05,10.87-4.71,16.68,9.82,17.35,33.2,1.04,75.34.06,110.48.41,28.55-.06,45.5.23,69.51-2.46,55.56-5.33,110-30.73,144.5-75.38,3.24-4.13,6.3-8.4,9.2-12.78-4.34,35.58-1.34,71.96,9.47,105.35,17.68,54.05,66.09,88.07,121.62,95.91,27.54,4.24,55.89,3.99,82.12-4.89,12.93-4.07,27.81-14.02,37.35-17.89,3.99-1.56,8.31-2.76,12.5-2.04h.09c4.65.74,10.13,4.56,15.32,7.99,12.36,8.5,25.6,15.66,40.06,7,6.95-4.04,10.51-11.18,12.75-19.17-10.67,50.72-19.72,95.6-23.37,119.75,1.47,5.93,12.39,5.92,18.16,6.32,9.3.4,22.35.47,33.3.16,12.5-.44,26.41-1.55,31.77-12.62,2.02-3.71,3.3-7.93,4.48-12.32,5.28-22.09,10.39-48.14,15.5-71.41,3.17-12.28,4.65-31.99,16.18-37.78,4.81-2.53,11.64-3.41,20.49-3.76,65.42-1.57,127.95,7.56,182.47-36.79,14.71-12.14,26.73-27.43,34.61-44.79,16.83-37.9,15.97-88.14-8.5-121.16ZM1108.47,326.74l.1-.04c.21-.09.92-.22,1.08-.2.18.09-1.58.51-1.18.24ZM1030.03,331.89c.4-5.64,2.89-11.95,4.6-17.57,2.23-6.97,3.89-14.13,5.41-21.25,3.79-14.79,8.24-52.15,23.58-57.46,13.21-3.19,25.53,24.8,30.73,34.68,4.41,9.17,8.25,18.61,11.42,28.12,3.01,9.98,6.99,20.74-.33,27.87l-.11.1c-7.13,5.52-15.94,4.98-26.56,6.38-6.97.78-13.9,1.95-20.78,3.36-9.13,1.36-28.94,9.04-27.96-4.23ZM1002.07,272.84h-.06c-.08-.06.22-.7.38-.75.23-.1-.14.64-.32.75ZM1003.26,364.11c-.36-.24-.72-.56-1.02-.88l-.08-.1c-.09-.33,1.69,1.33,1.1.98ZM1023.41,348.83c-.08.05.27-.25.32-.33h.02c0,.07-.32.35-.34.33ZM831.23,135.97c3.91-11.83,7.56-24.11,14.02-34.81,4.52-7.65,11.18-13.03,19.04-16.96,8.64-4.43,18.1-7.46,27.5-10.62,7.54-2.54,15.22-4.69,23.04-6.23,9.68-1.96,19.16-4.44,28.93-5.32,23.46-2.6,56.75,9.84,72.29,27.45,17.05,18.61,12.31,45.32,8.23,68-5.76,29.76-10.3,59.96-16.61,89.59-2.2,8-5.91,12.49-14.26,9.87-6.42-2.02-13.25-6.1-19.96-8.41-7.04-2.58-14.35-4.41-21.76-5.6-32.3-5.57-64.94,3.02-97.26,2.71h-.19c-52.8-.96-33.42-77.5-23-109.67ZM256.03,468.14c-12.33,13.9-30.28,20.27-48.52,22.47l-.19.02c-16.45,1.86-33.66,1.44-50.39,1.54-12.53-.04-26.02.12-36.42-.19-6.49-.33-13.73-.39-19.35-3.43-8.67-5.18-4.68-18.15-3.1-27.59,1.37-6.59,3.12-14.14,4.83-21.75,4.01-14.86,6.21-39.22,18.05-47.11,11.49-7.66,34.82-5.4,49.14-5.84,25.91.48,53.61-1.54,75.72,10.11,27.48,14.03,29.37,49.86,10.23,71.76ZM272.9,307.41c-10.65,11.9-26.05,17.54-41.71,19.53l-.19.02c-11.87,1.47-24.33,1.4-36.5,1.47-14.97-.09-31.37.29-45.04-.33-20.23-.77-21.08-8.43-17.51-26.75,2.53-12.13,6-28.58,9.11-40.19,5.82-23.13,18.4-22.38,39.21-22.92,12.8-.06,26.14-.09,38.97.06,23.57.55,46.01.98,58.63,19.49,9.98,15.03,6.74,36.4-4.97,49.62ZM604.72,453.76c-7.95,72.8-57.11,125.84-131.96,127.99h-.2c-10.02.49-20.31.49-30.41.51-10.92-.02-21.77.11-28.11-.69-6.23-.68-9.26-2.64-7.89-9.31,11.67-55.11,38.57-178.63,47.81-221.28,1.48-7.55,4.51-10.4,12.53-11.18,8.67-.98,25.2-.66,36.49-.65,16.95.16,33.66.54,48.8,5.55,47.94,14.85,57.92,64.68,52.93,109.07ZM1228.3,634.05c-13.4,14.39-31.84,19.91-51.51,22l-.2.02c-16.83,1.65-38.06,1.32-55.75,1.32-7.07-.06-13.66-.22-18.91-.9-7.33-1.13-12.59-2.45-14.64-9.06-1.7-7.5.7-15.99,2.12-23.71,3.62-16.61,7.76-36.67,11.74-53.73,3.36-14.08,7.55-24.42,23.36-26.78,13.13-2.07,27.88-1.36,41.44-1.25,30.67.03,66.67,5.62,75.17,38.8,4.69,18.2-.35,39.44-12.83,53.3Z"/>
        <path class="cls-1" d="M612.7,735.72c-34.78,0-62.97,28.19-62.97,62.97s28.19,62.97,62.97,62.97,62.97-28.19,62.97-62.97-28.19-62.97-62.97-62.97ZM583.01,846.66c-2.85-1.25-4.33-2.37-5.74-3.69-1.96-1.2-1.29-3.72,1.06-4.19,1.62-.31,4.83.16,6.64-2.27-5.32-6.37-12.92,3.03-17.38-3.55,2.53-3.32,5.05-2.73,7.65-3.4.15-2.35-2.32-2.57-1.96-2.52-3.03-.42-4.22-1.15-8.39,1.5-15.91-21.1-13.23-52.13,5-71.31,17.81-18.56,50.15-21.57,71.13-7.05-2.22,5.85-1.16,6.11,1.27,10.44-.23.21,6.21,2.46,2.74-5.1-.91-.75,1.33-4.31,5.09.99-.82,5.69-4.15,13.05,2.71,15.07l.68,1.22c-.75,2.71-.36,5.7-2.5,8.55-4.37-.58-7.48,1.66-7.53,5.21-.68,2.68.1,5.75,3.16,6.44l.89,1.09c-2.72,2.62-3.75,6.73-5.3,7.7-4.82.32-7.73-1.04-6.81-4.65.53-3.09,2.1-5.54,4.8-8.12-4.43-1.84-7.67.31-8.62,5.15-.96,1.9,2.55,4.98,2.64,7.77-2.39,8.07.43,14.46-6.96,18.51,2.04,3.46,1.38,7.94-1.94,9.38-2.82.73-6.68.87-8.4-1.48-3.59.86-7,2.62-8.13,6.3l-1.07-1.12c-.72-3.99-4.75-5.5-8.13-3.72-3.64,1.36-5.71,4.55-3.8,9.39-3.87-1.47-6.44-1.02-8.97.74-1.9,1.67-2.46,4.25-3.85,6.71ZM588.04,848.77c3.18-.73,5.72-2.14,10.37-3.99-1,4.32-5.79,7.68-10.37,3.99ZM597.82,840.73c-2.08-2.42.97-4.95,2.86-5.3,2.25-1.1,3.93-1.29,6.24-1.52l1.83,1.68c-.64,2.89-2.04,4.68-4.1,5.64-1.69.66-4.13.68-6.82-.51ZM609.21,853.22c-1.93,1.07-4.73,1.25-6.32-1.93,4.05-1.41,6.51-2.36,9.46-4.83,1.44,3.56-.38,5.63-3.14,6.76ZM612.52,840.52c-.91-3.33,2.07-3.66,3.64-3.1,2.41-.69,3.54-1.8,4.92-3.14,2.14,3.2-.7,4.76-.3,4.76-2.61,1.65-3.78,2.39-8.26,1.48ZM618.17,852.16c4.16-1.5,7.65-2.68,11.08-5.67-.21,5.07-6.48,9.1-11.08,5.67ZM635,839.34c-2.02,1.58-4.97,2.25-7.5.14,3.69-2.45,5.25-3.42,9.24-7.22,1.53,3.61-.08,5.66-1.74,7.07ZM639.92,824.44c-1.42,1.47-4.86,3.57-7.97.05,3.23-1.46,5.64-2.09,8.55-7.06,2.21,1.9,1.8,4.61-.59,7.01ZM643.71,810.21c-1.12,2.2-2.07,4.25-6.69,3.7-1.25-3.62-.3-5.64,1.43-7.67.6-.57,2.98-3.45,5.13-1.81.46,2.57.5,4.63.13,5.78ZM644.42,837.43c2.53-3.16,3.86-5.95,7.45-9.13,1.04,4.68-2.72,8.55-7.45,9.13ZM654.88,816.66c-.77,2.4-.45,5.08-6.19,4.73.54-3.52,2.26-4.06,2.88-5.29-.39-2.79,1.27-4.86,2.2-4.01,2.45,2.41,1.07,4.23,1.11,4.57ZM654.92,802.8c-1.09,2.41-3.47,5.33-7.73,3.98,2.53-3.11,3.84-5.09,5.19-10.59,3.43.88,3.86,3.78,2.54,6.61ZM655.09,790.82c-1.55,1.75-3.59,2.59-6.54,2.7l-.58-.92c.27-2.9.93-5.68,2.21-8.12,1.14-3.32,4.27-2.45,4.83.65,1.86,2.12,1.23,4.41.09,5.68ZM661.1,814.47l5.59-10.67c1.98,4.83-.68,8.5-5.59,10.67ZM667.6,793.82c-.4,2.26-2.32,5.34-6.99,5.22,2.22-4.12,3.88-7.11,3.87-12.6,3.98.87,4.24,3.94,3.12,7.37ZM663.93,778.39c-.65,2.58-1.65,5.9-6.47,5.61,1.91-4.32,2.65-7.28,2.12-12.65,3.59,1.46,4.62,4.27,4.35,7.04ZM658.23,765.14c.62,2.27.08,3.49-1.27,4.7-.35.32-.99.97-2.48,2.07l-.69-.73c.37-1.86.6-3.32.66-5-.4-2.59,2.92-3.16,3.78-1.03Z"/>
        <path class="cls-1" d="M619.19,819c-3.05,1.75-3.79,5.92-2.23,9.36,3.72-2.55,5.94-6.9,10.34-7.9-1.26-2.96-4.97-3.08-8.11-1.46Z"/>
        <path class="cls-1" d="M643.98,782.28c-1.3-5.26-.7-9.31,1.7-14.01-4.52-1.32-6.7,2.52-6.66,6.2-.47,3.33.03,7.26,4.95,7.81Z"/>
        <path class="cls-1" d="M604.21,826.89c2.05-4.66,5.14-5.64,10.55-6.15-3.09-5.23-7.2-3.44-10.28-1.47-1.63,1.64-3.39,5.2-.27,7.62Z"/>
        <path class="cls-1" d="M621.8,815.28c1.87-3.89,3.83-6.41,7.8-9.31-3.54-2.98-6.45-.98-8.47,1.21-1.72,2.19-3.53,5.57.66,8.09Z"/>
        <path class="cls-1" d="M595.6,828.04c-1.68-3.68-5.66-4.22-8.54-2.97-3.01,1.21-4.96,4.4-2.14,8.03,3.15-3.89,6.08-5.41,10.68-5.06Z"/>
        <path class="cls-1" d="M1067.21,236.55l-.06.02c.18.04.4.08.59.09.09-.03-.34-.1-.53-.11Z"/>
      </g>
    </g>
  </g>
</svg>