<?xml version="1.0" encoding="UTF-8"?>
<svg id="Layer_2" data-name="Layer 2" xmlns="http://www.w3.org/2000/svg" viewBox="0 0 1645.53 404.66">
  <defs>
    <style>
      .cls-1 {
        stroke: #0c0c0c;
        stroke-miterlimit: 10;
      }
    </style>
  </defs>
  <g id="Layer_1-2" data-name="Layer 1">
    <path class="cls-1" d="M1625.1,54.47c-24.33-33.4-69.27-42.77-108.08-44.44h-.17c-45.89-1.12-99.06-.51-143.18-.39-21.88.29-19.57,5.16-24.01,24.63-2.89,14.99-7.12,35.42-12.12,59.04-.47-1.46-.97-2.91-1.49-4.34-8.37-23.01-23.8-42.85-43.97-57.28-42.38-29.78-98.87-35.92-149.38-28.08-30.2,4.96-58.51,16.76-83.3,34.47-24.99,17.69-45.2,40.95-60.35,67.38-1.13-3.7-2.39-7.35-3.8-10.94-24.26-61.7-82.36-81.7-145.41-84.45h-.18c-16.01-.77-32.26-.63-48.46-.66-28.15.25-57.45-.54-83.66.4-5.65.49-11.71.64-14.99,5.31-1.25,1.86-2.03,4.34-2.81,7.56-1.01,4.25-2.13,9.81-3.57,16.56-3.09,14.62-7.09,33.47-11.61,54.83-.73-20.36-7.69-40.24-21.8-54.45-24.65-24.69-63.62-28.38-96.32-29.75h-.17c-42.88-.97-95.73-.17-136.81-.42-6.71,0-13.76.06-20.08.51-4.57.38-8.62.98-11.73,3.52-1.63,1.46-2.66,3.48-3.52,6.21-1.13,3.59-2.07,8.43-3.39,14.57-12.44,62.27-38.28,178.46-56.29,264.54-13.09-95.21-23.01-115.84-43.85-271.68-1.53-14.36-6.48-26.86-22.37-23.29-6.89,1.53-12.7,6-19.37,9.18-9,4.59-19.19,5.77-29.19,5.77-53.98.72-111.18-11.03-148.78,37.81-8.44,10.8-13.83,23.36-13.18,37.17.3,9.43,1.61,19.63-2.86,28.27-2.39,5.07-6.17,9.68-9.85,14.02C18.17,166.78-2.18,204.85.79,247.09l.02.14c1.86,15.95,13.78,17.37,28.09,17.3,9.63.11,19.2,1.19,28.63,3.18,16.04,3,42.4,11.44,49.73-9,4.14-13.81-6.86-30.92,2.09-42.87,7.78-9.71,21.83-12.28,33.56-14.22,18.75-2.73,36.72.62,55.39,3.88,13.42,2.32,27.02,4.7,40.42,7.04,12.77,3,32.88,2.71,41.02,13.41,4.67,6.02,5.06,14.42,6.56,21.79,7.91,38.86,10.41,42.57,13.92,58.99,2.27,10.6,2.78,20.59,3.99,31.21,2.5,14.16,2.45,47.9,13.69,54.69,3.51,2.16,8.01,2.99,12.27,2.41,2.38.06,4.88.07,7.31.18,2.1.02,4.37.03,6.8.04,41.61-.06,114.59.14,161.45-.04,15.69-.14,28.26-.56,44.47-3.22,28.38-4.29,56.5-15.28,78.26-33.4-1.59,7.49-2.94,13.87-4,18.89-2.05,10.87-4.71,16.68,9.82,17.35,33.2,1.04,75.34.06,110.48.41,28.55-.06,45.5.23,69.51-2.46,55.56-5.33,110-30.73,144.5-75.38,5.67-7.23,10.8-14.87,15.42-22.83.99,3.7,2.06,7.37,3.24,11.01,17.68,54.05,66.09,88.07,121.62,95.91,27.54,4.24,55.89,3.99,82.12-4.89,12.93-4.07,27.81-14.02,37.35-17.89,3.99-1.56,8.31-2.76,12.5-2.04h.09c4.65.74,10.13,4.56,15.33,7.99,11.3,7.77,23.33,14.41,36.37,8.88,3.9,1.09,8.77,1.19,12.01,1.41,9.3.4,22.35.47,33.3.16,12.5-.44,26.41-1.55,31.77-12.62,2.02-3.71,3.3-7.93,4.48-12.32,5.28-22.09,10.39-48.14,15.5-71.41,3.17-12.28,4.65-31.99,16.18-37.78,4.81-2.53,11.64-3.41,20.49-3.76,65.42-1.57,127.95,7.56,182.47-36.79,14.71-12.14,26.73-27.43,34.61-44.79,16.83-37.9,15.97-88.14-8.5-121.16ZM23.42,233.91c.11-.02.62.08.76.14l.07.03c.28.19-.96-.1-.83-.17ZM59.92,240.71c-4.86-1-9.76-1.82-14.68-2.38-7.5-.99-13.73-.61-18.77-4.51l-.08-.07c-5.17-5.04-2.36-12.64-.23-19.69,2.24-6.72,4.95-13.39,8.07-19.87,3.67-6.98,12.38-26.76,21.71-24.51,10.84,3.75,13.99,30.15,16.66,40.6,1.08,5.03,2.25,10.09,3.82,15.01,1.21,3.97,2.96,8.43,3.25,12.42.69,9.38-13.31,3.95-19.76,2.99ZM84.11,249.45h.02c.03.06.28.27.22.24-.01.01-.24-.19-.24-.24ZM99.32,259.86c-.21.22-.46.45-.72.62-.42.24.84-.93.77-.69l-.05.07ZM99.44,196c-.13-.08-.39-.6-.23-.53.11.04.33.49.27.53h-.04ZM203.9,176.77h-.14c-22.84.23-45.9-5.84-68.72-1.91-5.23.84-10.4,2.14-15.38,3.96-4.74,1.63-9.57,4.52-14.1,5.94-5.9,1.85-8.52-1.32-10.07-6.98-4.46-20.94-7.66-42.28-11.74-63.31-2.89-16.02-6.23-34.89,5.81-48.05,10.98-12.44,34.51-21.23,51.08-19.4,6.9.62,13.6,2.37,20.44,3.76,5.53,1.09,10.95,2.61,16.28,4.4,6.64,2.23,13.33,4.37,19.43,7.5,5.55,2.77,10.26,6.58,13.45,11.98,4.56,7.56,7.14,16.24,9.9,24.6,7.36,22.73,21.06,76.81-16.25,77.49ZM572.52,305.3c-12.33,13.9-30.28,20.27-48.52,22.47l-.19.02c-16.45,1.86-33.66,1.44-50.39,1.54-12.53-.04-26.02.12-36.42-.19-6.49-.33-13.73-.39-19.35-3.43-8.67-5.18-4.68-18.15-3.1-27.59,1.37-6.59,3.12-14.14,4.83-21.75,4.01-14.86,6.21-39.22,18.05-47.11,11.49-7.66,34.82-5.4,49.14-5.84,25.91.48,53.61-1.54,75.72,10.11,27.48,14.03,29.37,49.86,10.23,71.76ZM589.39,144.57c-10.65,11.9-26.05,17.54-41.71,19.53l-.19.02c-11.87,1.47-24.33,1.4-36.5,1.47-14.97-.09-31.37.29-45.04-.33-20.23-.77-21.08-8.43-17.51-26.75,2.53-12.13,6-28.58,9.11-40.19,5.82-23.13,18.4-22.38,39.21-22.92,12.8-.06,26.14-.09,38.97.06,23.57.55,46.01.98,58.63,19.49,9.98,15.03,6.74,36.4-4.97,49.62ZM656.58,225.92c-1.19-1.9-2.46-3.75-3.82-5.54-2.82-3.76-6.04-7.45-9.06-10.94-6.64-8.13-11.59-12.67-9.95-20.22,2.26-6.32,7.23-9.77,14.49-16.14,8.21-6.79,16.45-14.66,22.1-23.91,1.47-2.34,2.82-4.79,4.07-7.29-5.76,27.16-11.87,56-17.82,84.05ZM921.21,195.4c-7.95,72.79-57.11,125.84-131.96,127.99h-.2c-10.02.49-20.31.49-30.41.51-10.92-.02-21.77.11-28.11-.69-6.23-.68-9.26-2.64-7.89-9.31,11.67-55.11,38.57-178.63,47.81-221.28,1.48-7.55,4.51-10.4,12.53-11.18,8.67-.98,25.2-.66,36.49-.65,16.95.16,33.66.54,48.8,5.55,47.94,14.85,57.92,64.68,52.93,109.07ZM1317.38,187.44c-7.71-.55-16.24-.14-21.55-.37-26.22.06-60.3-.14-86.48.09-6.36.14-13.19.47-18.89,1.89-10.25,2.36-16.6,9.15-20.64,18.7-4.91,11.74-7,28.47,4.32,36.68,9.87,6.54,21.51,5.64,33.93,6.97,29.89,2.21,38.66,13.91,19.68,39.52-27.1,38.35-83.48,51.64-125.7,31.65-45.61-21.94-54.37-79.37-45.9-124.67,9.81-59.9,49.2-118.2,113.72-123.31,23.49-1.93,49.53,1.94,66.87,18.07,14.94,14.44,22.55,32.45,43.47,39.19,13.32,5.12,36.08,6.18,49.54-2.06-3.95,18.44-8.14,37.91-12.38,57.65ZM1545.56,167.69c-13.4,14.39-31.84,19.91-51.51,22l-.2.02c-16.83,1.65-38.06,1.32-55.75,1.32-7.07-.06-13.66-.22-18.91-.9-7.33-1.13-12.59-2.45-14.64-9.06-1.7-7.5.7-15.99,2.12-23.71,3.62-16.61,7.76-36.67,11.74-53.73,3.36-14.08,7.55-24.42,23.36-26.78,13.13-2.07,27.88-1.36,41.44-1.25,30.67.03,66.67,5.62,75.17,38.8,4.69,18.2-.35,39.44-12.83,53.3Z"/>
  </g>
</svg>